<svg version="1.1" id="Layer_1" xmlns="http://www.w3.org/2000/svg" xmlns:xlink="http://www.w3.org/1999/xlink" x="0px" y="0px"
	 width="100%" viewBox="0 0 500 500" enable-background="new 0 0 500 500" xml:space="preserve">
<path fill="#000000" opacity="1.000000" stroke="none" 
	d="
M236.000000,501.000000 
	C157.333359,501.000000 79.166702,501.000000 1.000042,501.000000 
	C1.000028,334.333405 1.000028,167.666779 1.000014,1.000131 
	C167.666565,1.000088 334.333130,1.000088 500.999756,1.000044 
	C500.999847,167.666519 500.999847,334.333038 500.999939,500.999786 
	C412.833344,501.000000 324.666656,501.000000 236.000000,501.000000 
M238.217606,192.154144 
	C234.806702,190.602783 231.486740,188.791489 227.964279,187.558929 
	C222.199493,185.541748 218.578445,188.557190 217.880768,194.527115 
	C217.169281,200.615021 220.545670,204.411423 224.834381,208.405228 
	C207.388138,228.022339 190.293961,247.243561 173.199799,266.464783 
	C175.297363,266.576691 176.961227,266.041046 178.388367,265.133270 
	C185.011337,260.920532 191.701950,256.794464 198.122101,252.286636 
	C212.029709,242.521576 225.759247,232.503021 239.654678,222.720322 
	C240.849945,221.878830 243.131134,221.286072 244.215485,221.867996 
	C246.089981,222.873962 248.719360,224.948425 248.653442,226.471741 
	C248.570053,228.398880 246.487839,230.860992 244.606216,231.982834 
	C235.762756,237.255432 226.680161,242.125763 217.712997,247.192871 
	C215.726242,248.315506 213.861328,249.653717 210.891220,251.569275 
	C213.162872,251.806274 213.996826,252.091125 214.743530,251.941254 
	C224.605621,249.962006 234.578171,248.368896 244.258133,245.713394 
	C249.324738,244.323502 254.519684,241.813431 258.522614,238.456833 
	C267.520264,230.911972 269.480011,224.792755 262.750183,216.723190 
	C255.517883,208.051117 246.870300,200.559387 238.217606,192.154144 
M122.452202,312.038757 
	C125.290573,306.847046 128.128937,301.655334 131.220795,296.000000 
	C128.731064,296.000000 126.912445,296.211761 125.161057,295.958557 
	C120.689316,295.312042 117.955978,296.832367 116.174652,301.215393 
	C114.408684,305.560699 111.733353,309.536469 109.367821,313.836090 
	C106.843620,308.985748 104.552628,304.205170 101.895782,299.637390 
	C100.560997,297.342590 98.929375,295.541199 95.393661,295.851288 
	C89.279861,296.387482 83.085052,296.000000 76.924225,296.000000 
	C70.002182,296.000000 63.080143,296.000000 56.296738,296.000000 
	C56.296738,310.685059 56.296738,324.750916 56.296738,338.702209 
	C60.338589,338.702209 64.078064,338.702209 68.198349,338.702209 
	C68.198349,333.666382 68.198349,328.921783 68.198349,323.808563 
	C74.668922,323.808563 80.746223,323.808563 86.706009,323.808563 
	C86.706009,320.337616 86.706009,317.263794 86.706009,313.821167 
	C80.334465,313.821167 74.253311,313.821167 68.288162,313.821167 
	C68.288162,311.015503 68.288162,308.612000 68.288162,305.854126 
	C74.999352,305.854126 81.429016,305.854126 88.192825,305.854126 
	C88.192825,303.146118 88.192825,300.808228 88.192825,298.470367 
	C94.158653,311.872528 106.678398,322.491821 103.988625,338.654205 
	C108.101868,338.654205 111.508438,338.654205 114.716553,338.654205 
	C114.998596,333.870911 114.521011,329.228638 115.723450,325.072418 
	C116.988770,320.698792 119.860703,316.789948 122.452202,312.038757 
M219.000000,329.466034 
	C219.000000,318.382904 219.000000,307.299774 219.000000,296.275482 
	C215.035126,296.275482 211.632233,296.275482 207.843765,296.275482 
	C207.843765,304.225006 207.843765,311.906891 207.843765,321.027649 
	C203.679962,315.203796 200.335999,310.519897 196.984802,305.841125 
	C192.849976,300.068268 189.179153,293.492615 180.191040,296.040344 
	C179.898361,296.123291 179.631790,296.298462 179.196808,296.504730 
	C179.196808,310.490112 179.196808,324.547516 179.196808,338.802307 
	C182.792877,338.802307 186.192642,338.802307 190.000000,338.802307 
	C190.000000,334.681488 190.000000,330.731384 190.000000,326.781250 
	C190.000000,322.966278 190.000000,319.151306 190.000000,314.501099 
	C195.065079,321.071411 200.396576,326.216919 203.498444,332.468658 
	C207.198654,339.926422 212.563705,339.428223 219.000000,338.667572 
	C219.000000,335.744354 219.000000,333.099854 219.000000,329.466034 
M409.678314,334.971130 
	C415.172546,338.879242 421.279724,340.624512 427.997589,339.986542 
	C436.168884,339.210541 442.463959,335.200439 446.352295,328.061066 
	C450.348236,320.724030 449.981476,313.273224 445.593842,306.031982 
	C440.210205,297.146851 431.756348,295.610901 422.385406,295.985596 
	C414.580841,296.297699 408.750763,299.988342 404.968079,306.596191 
	C399.531738,316.092743 400.995087,325.080170 409.678314,334.971130 
M254.421722,330.000000 
	C248.986191,330.000000 243.550659,330.000000 238.314972,330.000000 
	C238.314972,326.973083 238.314972,324.564453 238.314972,321.778687 
	C245.376389,321.778687 252.128952,321.778687 258.682648,321.778687 
	C258.682648,318.632446 258.682648,315.892029 258.682648,312.780243 
	C251.613998,312.780243 244.856903,312.780243 238.315338,312.780243 
	C238.315338,310.301361 238.315338,308.230713 238.315338,305.780334 
	C246.041245,305.780334 253.457703,305.780334 260.682007,305.780334 
	C260.682007,302.296082 260.682007,299.220184 260.682007,296.319153 
	C249.289902,296.319153 238.217987,296.319153 227.320511,296.319153 
	C227.320511,310.711700 227.320511,324.783295 227.320511,338.684509 
	C238.722000,338.684509 249.800934,338.684509 260.676300,338.684509 
	C260.676300,335.622192 260.676300,332.882080 260.676300,330.000000 
	C258.703094,330.000000 257.050079,330.000000 254.421722,330.000000 
M362.462341,332.975372 
	C373.190338,342.504913 384.387451,341.321686 395.797028,335.930603 
	C396.813660,335.450195 397.850830,333.826904 397.900970,332.691223 
	C398.126648,327.582306 397.999390,322.457794 397.999390,317.213989 
	C394.493011,317.213989 391.419891,317.213989 387.999725,317.213989 
	C387.999725,320.049103 388.190643,322.695862 387.917908,325.293915 
	C387.784729,326.562531 387.081879,328.438599 386.131042,328.839264 
	C381.891388,330.625732 377.674011,330.603394 373.876495,327.409851 
	C369.250854,323.519867 367.887634,318.929504 369.985077,313.574341 
	C371.886078,308.720673 375.271149,305.567291 380.543518,306.139954 
	C384.574860,306.577789 388.468445,308.284149 393.072021,309.613556 
	C394.705719,307.624817 396.828308,305.040985 398.942230,302.467682 
	C392.716858,296.841522 381.960510,294.026367 374.437256,296.257690 
	C369.162231,297.822235 364.263580,300.049072 360.958649,304.965271 
	C354.587952,314.441711 355.977692,323.477203 362.462341,332.975372 
M159.333374,306.851227 
	C161.648834,307.916168 163.964294,308.981110 166.615921,310.200684 
	C168.745697,307.596466 170.850418,305.022888 173.063049,302.317352 
	C163.627655,294.712006 153.374893,294.022858 143.023849,298.180054 
	C136.252853,300.899414 131.876266,306.826904 131.141891,314.192932 
	C130.332504,322.311188 131.984146,329.674194 139.371414,335.178986 
	C147.005676,340.867920 155.094147,340.787872 163.431717,338.657227 
	C166.528854,337.865723 171.032761,335.679596 171.606155,333.327606 
	C172.855179,328.204285 171.991974,322.565979 171.991974,317.306274 
	C168.301346,317.306274 165.222610,317.306274 161.999390,317.306274 
	C161.999390,320.261017 162.156021,322.925476 161.927170,325.556427 
	C161.826721,326.711121 161.211624,328.452454 160.364517,328.803436 
	C156.324646,330.477234 152.166016,330.782532 148.434967,327.897308 
	C143.880615,324.375427 141.965851,319.527740 143.388214,315.103882 
	C145.671158,308.003540 150.224960,304.813171 159.333374,306.851227 
M335.689941,309.960419 
	C336.751770,308.138428 337.737701,306.266724 338.891968,304.505310 
	C340.977570,301.322754 339.773407,299.697083 336.629364,298.163116 
	C330.046082,294.951294 322.913422,295.010254 316.395569,296.462372 
	C305.605347,298.866364 302.873108,309.042816 308.250763,315.585632 
	C311.022400,318.957764 316.792572,319.759216 321.000336,322.095917 
	C323.629059,323.555695 329.384460,322.922913 327.666931,327.826355 
	C326.470428,331.242340 321.975586,330.562927 318.706909,329.195038 
	C314.923065,327.611450 311.224213,325.824768 307.437042,324.102905 
	C306.022919,326.944366 304.615540,329.772278 303.219543,332.577332 
	C310.851624,339.533264 325.371002,342.764557 334.766022,337.065094 
	C339.652191,334.100891 341.354797,329.030518 340.193359,323.516754 
	C338.644226,316.162262 332.838287,314.898468 327.184265,312.964996 
	C323.887390,311.837524 320.712982,310.351959 317.483490,309.027496 
	C317.626099,308.142242 317.768707,307.256989 317.911316,306.371735 
	C320.158325,306.214355 322.519592,305.544556 324.626740,306.014465 
	C328.177002,306.806244 331.566071,308.321014 335.689941,309.960419 
M295.853943,297.327545 
	C290.154877,296.886505 284.400146,295.752533 278.772766,296.204254 
	C273.416626,296.634186 267.998840,300.087982 267.014069,306.517578 
	C266.049438,312.815643 268.398743,317.073303 274.743805,319.919312 
	C277.489380,321.150848 280.482361,321.828766 283.358337,322.772278 
	C285.858063,323.592346 289.850006,323.699524 288.657715,327.369873 
	C288.170441,328.869995 283.951050,329.214325 281.386841,329.931732 
	C280.918457,330.062805 280.244720,329.453827 279.663971,329.190491 
	C275.934723,327.499359 272.204956,325.809326 268.447388,324.106262 
	C267.015076,326.978180 265.608459,329.798584 264.216949,332.588684 
	C272.079926,339.624908 286.386566,342.724060 295.798401,337.056091 
	C300.656799,334.130249 302.324036,329.008240 301.173920,323.492493 
	C299.634583,316.109833 293.796814,314.903625 288.154663,312.964294 
	C284.863434,311.833038 281.697021,310.338562 278.474426,309.007507 
	C285.910309,302.430542 291.400330,308.344757 297.471130,309.953522 
	C298.022461,308.479340 298.291016,306.793396 299.182312,305.555969 
	C302.087616,301.522217 301.285156,299.048553 295.853943,297.327545 
M213.095276,179.739975 
	C213.257874,179.898376 213.420471,180.056763 213.583069,180.215149 
	C213.682755,180.081833 213.840942,179.961395 213.873566,179.813324 
	C214.613907,176.453094 215.075653,173.004730 216.123306,169.744370 
	C218.511642,162.311661 220.394821,154.595978 226.413101,148.913620 
	C229.232941,146.251175 232.203949,145.135544 235.509735,147.794037 
	C239.483582,150.989792 243.374390,154.298080 247.167847,157.706024 
	C250.308075,160.527130 256.559631,162.165192 258.911865,160.534775 
	C261.361542,158.836823 261.978729,152.116714 260.024811,148.222198 
	C259.732513,147.639633 259.328003,147.114548 259.007111,146.545013 
	C254.853760,139.173859 248.073135,135.145691 240.466507,132.396576 
	C231.928955,129.311005 224.691833,131.536148 219.772583,137.483994 
	C209.358063,150.076126 210.537994,164.375519 213.095276,179.739975 
M311.541290,200.065674 
	C323.186768,192.283585 332.293152,171.072723 327.591370,161.691971 
	C325.083466,171.593170 319.424652,179.162079 312.057709,185.356995 
	C303.685150,192.397461 300.678558,193.231934 295.075531,181.181366 
	C294.466827,179.872253 294.500977,178.252716 293.843872,176.980148 
	C292.651154,174.670486 291.449310,172.256622 289.737396,170.346878 
	C286.271240,166.480164 283.468048,166.991577 280.906921,171.511490 
	C276.171875,179.868088 279.683136,187.603928 284.289459,193.957230 
	C291.628662,204.079865 297.661377,209.653961 311.541290,200.065674 
M286.901947,137.015015 
	C275.273987,136.946396 270.993500,140.188492 269.791168,149.974731 
	C268.877777,157.408890 273.674622,164.635223 280.397339,165.952713 
	C288.260681,167.493744 295.174622,162.901428 296.994385,154.928726 
	C298.720520,147.366135 295.579163,141.322037 286.901947,137.015015 
M210.999802,364.900177 
	C210.999802,364.129242 210.999802,363.358307 210.999802,362.190063 
	C215.252853,368.407654 215.364929,368.421661 218.789108,363.438171 
	C218.864716,363.964508 218.847290,364.449860 219.010941,364.863617 
	C219.425125,365.910797 219.920639,366.925842 220.383545,367.953766 
	C220.922272,366.839569 221.845886,365.752136 221.925629,364.605988 
	C222.141739,361.499878 221.999725,358.368835 221.999725,355.247681 
	C221.507553,354.963348 221.015381,354.679047 220.523209,354.394714 
	C218.741699,356.777344 216.960175,359.159943 215.192886,361.523560 
	C212.421906,360.109985 213.903534,353.844269 208.000000,355.323914 
	C208.000000,357.967285 208.000000,360.604858 208.000000,363.242462 
	C208.000000,364.713074 208.000000,366.183716 208.000000,367.654327 
	C208.370850,367.846100 208.741714,368.037903 209.112564,368.229675 
	C209.740860,367.392914 210.369171,366.556152 210.999802,364.900177 
M148.000000,362.399109 
	C148.000000,364.197906 148.000000,365.996735 148.000000,369.535828 
	C151.483765,363.705811 154.409805,366.198853 157.393936,367.947449 
	C157.658081,368.102234 158.209152,367.767334 157.482880,367.954132 
	C157.991104,365.428436 158.170273,363.452606 158.801758,361.633820 
	C159.984116,358.228363 158.222137,355.250641 154.560043,355.025146 
	C152.479431,354.897003 150.384430,355.001953 148.000000,355.001953 
	C148.000000,357.534393 148.000000,359.497559 148.000000,362.399109 
M79.706985,358.219940 
	C76.401924,353.460510 71.715996,355.171509 67.274246,355.203247 
	C67.274246,359.619568 67.274246,363.659729 67.274246,367.667542 
	C78.645424,368.712250 80.060448,367.723083 79.706985,358.219940 
M436.620972,367.934174 
	C440.376892,369.327942 445.638947,367.881348 446.639679,364.659760 
	C447.634399,361.457672 447.469360,358.065765 443.983490,355.998322 
	C440.538635,353.955292 435.917145,354.752594 433.837067,357.709045 
	C431.838898,360.549103 432.783661,364.873413 436.620972,367.934174 
M348.013397,360.511414 
	C346.084015,358.378357 345.408539,354.599487 341.218536,355.231262 
	C341.218536,359.496124 341.218536,363.617401 341.218536,367.738708 
	C341.742889,367.891998 342.267242,368.045288 342.791595,368.198547 
	C343.399933,366.001312 344.008270,363.804077 344.569336,361.777557 
	C347.535065,363.361328 347.372223,369.169250 352.779877,367.717377 
	C352.779877,363.481567 352.779877,359.365845 352.779877,355.250153 
	C352.355591,355.083069 351.931274,354.915985 351.506989,354.748901 
	C351.004944,355.809265 350.499939,356.868195 350.001740,357.930359 
	C349.517883,358.961945 349.040955,359.996765 348.013397,360.511414 
M256.000000,361.530273 
	C256.000000,363.636688 256.000000,365.743103 256.000000,367.849487 
	C256.656860,368.004578 257.313751,368.159668 257.970612,368.314758 
	C258.474213,366.414948 258.977783,364.515137 259.549408,362.358765 
	C262.505127,363.412201 262.621033,369.858887 267.695129,367.574615 
	C267.695129,363.290192 267.695129,359.210632 267.695129,355.131073 
	C267.110413,355.003510 266.525726,354.875977 265.941010,354.748413 
	C265.479706,357.280396 265.018402,359.812408 264.585938,362.186218 
	C262.221008,359.633789 259.778931,356.998108 257.336884,354.362396 
	C256.891235,354.659576 256.445618,354.956757 256.000000,355.253906 
	C256.000000,357.038971 256.000000,358.824005 256.000000,361.530273 
M49.000000,361.530273 
	C49.000000,363.636688 49.000000,365.743103 49.000000,367.849518 
	C49.660652,367.990356 50.321308,368.131226 50.981960,368.272095 
	C51.480976,366.389587 51.979988,364.507080 52.539246,362.397308 
	C55.541191,363.348450 55.603344,369.890106 60.695114,367.575195 
	C60.695114,363.290192 60.695114,359.210632 60.695114,355.131073 
	C60.110394,355.003510 59.525677,354.875946 58.940956,354.748413 
	C58.479660,357.280396 58.018368,359.812408 57.585880,362.186310 
	C55.220978,359.633789 52.778973,356.998047 50.336967,354.362305 
	C49.891312,354.655304 49.445656,354.948303 49.000000,355.241302 
	C49.000000,357.030548 49.000000,358.819824 49.000000,361.530273 
M123.999443,362.349976 
	C122.611565,360.011322 121.733559,356.792358 119.680038,355.602997 
	C117.928467,354.588531 113.901184,355.017731 112.553665,356.418152 
	C110.856300,358.182129 109.808876,361.873383 110.449104,364.188965 
	C111.000023,366.181610 114.260315,368.602936 116.417274,368.698456 
	C119.676064,368.842865 123.147179,367.299957 123.999443,362.349976 
M281.877502,355.028320 
	C279.310516,355.028320 276.743530,355.028320 274.334717,355.028320 
	C274.334717,359.744324 274.334717,363.790649 274.334717,367.992065 
	C279.092651,367.544617 284.634277,370.074097 286.693115,363.571960 
	C287.883057,359.813751 286.324524,356.926697 281.877502,355.028320 
M185.994583,365.194427 
	C185.558456,363.807739 185.122345,362.421021 184.686234,361.034332 
	C184.075577,362.124115 183.681442,363.468842 182.789017,364.226898 
	C182.008423,364.889862 180.230927,365.486908 179.661728,365.068512 
	C178.330414,364.089844 176.525070,362.432465 176.596390,361.143127 
	C176.747787,358.405975 179.027206,357.638794 181.699661,357.984558 
	C183.078400,358.162903 184.510193,357.931183 185.918015,357.884766 
	C185.892715,357.424286 185.867432,356.963776 185.842133,356.503296 
	C180.645172,354.000885 176.029419,354.548248 174.022690,357.934570 
	C172.054428,361.255920 172.809067,364.272888 175.388321,366.819458 
	C178.353378,369.747009 182.321350,369.366760 185.994583,365.194427 
M463.065857,362.425018 
	C462.363464,360.632874 461.856934,358.723663 460.882782,357.093964 
	C460.326813,356.163788 459.068726,355.313446 458.011749,355.143829 
	C457.324341,355.033539 456.054138,356.043915 455.693024,356.844513 
	C454.093414,360.390930 452.728210,364.043091 451.278198,367.656982 
	C451.426697,368.276215 451.575165,368.895477 451.723663,369.514740 
	C455.965912,364.199921 460.340302,365.780243 465.350494,368.783844 
	C464.484314,366.019684 464.019104,364.535126 463.065857,362.425018 
M241.522400,356.006989 
	C239.782135,359.899414 238.041870,363.791840 236.301605,367.684265 
	C241.188538,364.574738 245.866226,365.719299 251.155548,368.684174 
	C249.114212,364.155853 247.800278,360.670410 245.963898,357.486237 
	C245.345871,356.414642 243.400269,356.108704 241.522400,356.006989 
M367.368988,357.987427 
	C367.887390,357.351196 368.405792,356.714966 368.924194,356.078735 
	C368.297119,355.721466 367.682739,355.085083 367.040710,355.055878 
	C364.446716,354.937836 361.844177,355.006927 359.329987,355.006927 
	C359.329987,359.678558 359.329987,363.739349 359.329987,367.426758 
	C363.079285,367.426758 366.483795,367.426758 369.888336,367.426758 
	C368.524689,366.205353 367.126678,366.230957 365.790619,365.955688 
	C364.834778,365.758728 363.962067,365.158386 363.052246,364.738037 
	C363.970734,364.158875 364.855835,363.515228 365.816620,363.017761 
	C366.873535,362.470551 368.000031,362.057770 369.096191,361.586395 
	C368.904572,361.147949 368.712952,360.709503 368.521332,360.271057 
	C366.698669,360.036224 364.876007,359.801392 363.053345,359.566559 
	C363.036743,359.214172 363.020111,358.861786 363.003510,358.509430 
	C364.166260,358.339142 365.328979,358.168884 367.368988,357.987427 
M135.515594,365.819580 
	C130.343430,363.537628 134.578964,358.622284 131.885483,354.431274 
	C130.876053,355.421936 129.178085,356.300568 129.128616,357.263885 
	C128.792252,363.813385 129.112686,368.135101 134.273621,368.447113 
	C136.415833,368.576630 140.403381,366.457214 140.581207,364.998413 
	C140.967651,361.828430 142.846756,357.622528 137.999908,353.791504 
	C137.999908,357.233337 138.219666,359.362640 137.922058,361.416992 
	C137.726227,362.768585 136.784515,364.012115 135.515594,365.819580 
M394.825684,355.004913 
	C393.560242,356.105408 392.294800,357.205872 391.029358,358.306366 
	C393.090759,360.559143 395.152191,362.811951 397.258301,365.113586 
	C395.061096,365.113586 392.551605,365.113586 390.042114,365.113586 
	C393.389099,368.581451 397.841034,370.413757 400.235779,366.837036 
	C404.064850,361.118195 396.853119,360.924835 393.668610,358.128265 
	C395.736969,358.128265 397.060669,358.244537 398.351257,358.088043 
	C399.233490,357.981079 400.069550,357.493652 400.926239,357.176331 
	C400.330414,356.479065 399.857208,355.430237 399.109192,355.169373 
	C398.064178,354.804901 396.814056,355.028564 394.825684,355.004913 
M384.386078,355.940826 
	C382.827759,355.627380 381.144440,354.795837 379.743317,355.133911 
	C378.057495,355.540619 376.611603,356.941925 375.061859,357.912659 
	C376.161835,359.528748 377.090149,361.310120 378.426819,362.698303 
	C379.216278,363.518250 380.652100,363.715851 381.797241,364.193298 
	C381.658386,364.653748 381.519562,365.114197 381.380707,365.574646 
	C379.391235,365.128052 377.401764,364.681427 375.412292,364.234802 
	C375.132904,364.619965 374.853516,365.005096 374.574127,365.390259 
	C376.065796,366.432922 377.525452,368.257385 379.057281,368.320190 
	C380.969788,368.398590 384.062622,367.542786 384.686676,366.187927 
	C386.934357,361.308014 381.318298,360.965088 378.419098,357.623291 
	C380.813080,358.174103 382.145721,358.710754 383.458832,358.666595 
	C383.964905,358.649597 384.426636,357.312531 384.386078,355.940826 
M423.350464,355.000641 
	C417.075592,355.171478 413.869751,357.948792 415.224335,363.008087 
	C415.785309,365.103485 418.539581,367.093781 420.763245,368.089020 
	C422.198029,368.731293 425.199280,368.084015 426.186493,366.910706 
	C427.226685,365.674438 426.706085,363.124908 426.817139,361.764893 
	C424.572693,363.254303 422.940063,364.884430 421.041748,365.299500 
	C420.381409,365.443878 417.928528,362.259277 418.244446,361.150879 
	C419.567230,356.509674 423.355103,358.031464 426.702728,358.892426 
	C426.950531,358.501068 427.198334,358.109711 427.446136,357.718353 
	C426.360748,356.814056 425.275330,355.909729 423.350464,355.000641 
M380.333954,260.002197 
	C378.286652,261.167114 374.629059,262.188843 374.510254,263.525238 
	C374.216949,266.823883 375.216309,270.397369 376.464539,273.556732 
	C376.763092,274.312408 380.389923,274.581879 381.924713,273.868103 
	C386.943024,271.534241 386.377045,263.244446 380.333954,260.002197 
M112.936707,271.981079 
	C111.907684,271.548462 110.878662,271.115845 109.849640,270.683228 
	C109.668755,271.378967 109.228676,272.632568 109.345749,272.686951 
	C111.185577,273.541748 113.226379,275.026733 114.953468,274.742310 
	C116.474564,274.491821 118.483437,272.366547 118.755203,270.804413 
	C118.999100,269.402496 117.450531,267.346161 116.168808,266.131195 
	C115.166046,265.180634 113.361290,265.076172 111.912865,264.595764 
	C111.947289,264.097565 111.981720,263.599335 112.016144,263.101135 
	C114.018623,263.101135 116.021095,263.101135 118.777641,263.101135 
	C118.343262,262.133118 117.747025,260.232117 117.470825,260.277557 
	C114.743980,260.725891 110.233406,260.827850 109.699669,262.292755 
	C107.398575,268.608368 114.403992,267.276794 117.757538,270.251099 
	C116.073654,270.980011 114.897026,271.489319 112.936707,271.981079 
M400.794006,274.970642 
	C407.155487,274.271057 408.090637,272.836273 405.973267,267.387787 
	C405.653748,266.565582 406.208252,265.443512 406.092346,264.492584 
	C405.939362,263.237732 405.846283,261.214386 405.156952,260.936523 
	C403.456909,260.251160 401.371490,260.024506 399.564911,260.334839 
	C398.795715,260.466980 398.336060,262.401154 397.862579,263.280792 
	C400.181122,263.280792 401.941040,263.280792 403.700989,263.280792 
	C402.540253,264.602905 401.379547,265.925018 400.396088,267.045288 
	C401.661957,268.135162 403.133972,269.402496 404.605988,270.669861 
	C404.283234,271.217712 403.960449,271.765564 403.637695,272.313416 
	C402.398041,271.744812 401.192566,271.073822 399.906433,270.644653 
	C399.090912,270.372620 398.155304,270.460480 397.273560,270.386902 
	C397.381317,271.291443 397.214142,272.385101 397.671112,273.049438 
	C398.167755,273.771484 399.244568,274.094421 400.794006,274.970642 
M29.665649,358.000916 
	C31.094772,357.441071 32.523895,356.881195 33.953014,356.321320 
	C32.574993,355.880890 31.222889,355.220551 29.812551,355.054352 
	C27.943653,354.834106 26.029240,355.000031 24.329819,355.000031 
	C24.329819,359.795532 24.329819,363.836029 24.329819,367.876556 
	C24.804276,368.016602 25.278732,368.156677 25.753189,368.296722 
	C26.408365,366.572906 27.063543,364.849060 27.514105,363.663574 
	C29.542633,362.961243 31.242405,362.372742 32.942169,361.784241 
	C31.044350,360.859100 29.146530,359.933960 26.902744,358.840149 
	C27.564709,358.547852 28.175793,358.278046 29.665649,358.000916 
M371.976349,266.241943 
	C373.506989,263.688934 372.772186,261.155029 370.368256,260.306122 
	C367.497375,259.292297 364.205017,259.457001 362.872955,263.784790 
	C365.412201,263.425415 367.601746,263.115509 369.791290,262.805634 
	C369.822662,263.263763 369.854034,263.721893 369.885406,264.180023 
	C367.380341,267.120605 364.875244,270.061218 362.039062,273.390503 
	C366.569672,273.390503 369.772766,273.390503 372.975861,273.390503 
	C372.980957,273.008392 372.986053,272.626282 372.991119,272.244141 
	C370.814575,272.115204 368.638000,271.986237 366.313690,271.848541 
	C368.166199,270.122711 369.893829,268.513245 371.976349,266.241943 
M310.856110,355.527832 
	C308.005920,355.321381 305.155731,355.114899 302.238037,354.903564 
	C302.238037,359.669983 302.238037,363.736694 302.238037,367.803406 
	C302.741486,367.972260 303.244934,368.141144 303.748383,368.309998 
	C304.389771,366.643433 305.031128,364.976868 305.722321,363.180939 
	C307.315643,363.035583 309.068756,362.875641 310.821838,362.715729 
	C310.965729,362.178009 311.109589,361.640320 311.253448,361.102600 
	C309.185944,360.493835 307.118408,359.885040 304.690918,359.170258 
	C307.096222,358.112457 309.032379,357.260986 310.856110,355.527832 
M390.668457,260.000061 
	C389.120453,260.679993 387.572418,261.359955 386.024414,262.039886 
	C386.265045,262.606018 386.505676,263.172150 386.746307,263.738281 
	C388.253510,263.216431 389.760712,262.694580 391.518921,262.085815 
	C394.637878,264.644897 392.363892,266.174194 390.273560,268.025482 
	C388.723907,269.397888 387.567719,271.214569 386.236267,272.833313 
	C386.603302,273.248352 386.970367,273.663391 387.337402,274.078400 
	C390.223297,273.945953 393.109192,273.813507 395.995056,273.681030 
	C395.994598,273.239105 395.994141,272.797150 395.993652,272.355194 
	C394.148468,272.171021 392.303284,271.986847 389.508301,271.707855 
	C391.183777,270.521576 392.585754,269.953094 393.316895,268.913025 
	C394.450226,267.300934 396.004181,265.217865 395.731537,263.614807 
	C395.492462,262.209564 392.985748,261.190033 390.668457,260.000061 
M97.117966,363.572632 
	C97.851662,365.034027 98.585350,366.495392 99.319046,367.956787 
	C99.925323,366.532684 100.448586,365.065613 101.158104,363.694946 
	C102.125328,361.826508 103.318718,360.072968 104.245743,358.186920 
	C104.678673,357.306152 104.714020,356.230011 104.929573,355.242401 
	C104.489685,354.973969 104.049797,354.705536 103.609909,354.437073 
	C102.125923,356.137604 100.641937,357.838104 99.147896,359.550140 
	C97.138901,358.391754 97.718239,353.113129 92.984779,355.627808 
	C94.313721,358.019836 95.639450,360.406128 97.117966,363.572632 
M192.956619,360.714355 
	C193.642578,362.639343 194.262192,364.592224 195.053101,366.473083 
	C195.304825,367.071747 195.940582,367.668640 196.540573,367.894531 
	C196.846069,368.009491 197.717972,367.401062 197.897369,366.947144 
	C199.437378,363.050293 200.877533,359.113983 202.347519,355.189484 
	C202.055252,354.911072 201.762985,354.632660 201.470718,354.354248 
	C199.777374,356.070831 198.084015,357.787445 196.725021,359.165070 
	C195.059082,357.679779 193.178421,356.003021 191.297745,354.326263 
	C190.960587,354.669861 190.623428,355.013458 190.286270,355.357056 
	C191.042542,356.922638 191.798813,358.488220 192.956619,360.714355 
M102.494461,260.000000 
	C100.328796,259.828064 98.649895,259.874481 98.926750,262.998047 
	C99.243668,266.573669 99.000191,270.198944 99.000191,274.166992 
	C102.402107,273.949829 105.214668,273.770264 108.027229,273.590698 
	C108.006836,273.134705 107.986435,272.678741 107.966034,272.222748 
	C105.731064,272.091675 103.496094,271.960632 100.961510,271.811981 
	C101.123116,270.357086 101.253456,269.183685 101.363998,268.188507 
	C103.572762,267.974701 105.314217,267.806152 107.055672,267.637573 
	C107.022079,267.197021 106.988480,266.756470 106.954887,266.315918 
	C105.095413,266.134735 103.235939,265.953552 101.028061,265.738434 
	C101.129875,264.438873 101.222710,263.253967 101.309875,262.141388 
	C103.786522,261.993073 105.879662,261.867706 107.972801,261.742340 
	C107.973305,261.246552 107.973808,260.750793 107.974304,260.255005 
	C106.458199,260.170013 104.942085,260.085022 102.494461,260.000000 
M328.927246,358.898438 
	C329.119934,367.269653 329.119934,367.269653 331.942505,367.510834 
	C331.942505,364.551941 331.942505,361.610809 331.942505,358.956940 
	C333.619598,357.982147 334.977142,357.193085 336.334686,356.404053 
	C336.177917,356.030060 336.021179,355.656067 335.864441,355.282074 
	C332.313416,355.282074 328.762421,355.282074 325.211426,355.282074 
	C325.051605,355.749115 324.891815,356.216187 324.731995,356.683228 
	C325.969116,357.168182 327.206207,357.653107 328.927246,358.898438 
M470.000000,359.635071 
	C470.000000,362.375519 470.000000,365.115936 470.000000,368.137512 
	C473.440186,367.956207 476.182312,367.811676 478.924438,367.667175 
	C478.925354,367.286926 478.926300,366.906708 478.927216,366.526459 
	C477.324249,366.202209 475.721283,365.877991 473.905945,365.510773 
	C473.905945,362.000397 473.905945,358.736176 473.905945,355.503296 
	C470.175232,354.017639 469.786530,356.016937 470.000000,359.635071 
M130.893402,260.449188 
	C127.289146,260.449188 123.684891,260.449188 120.080635,260.449188 
	C120.040146,260.756409 119.999649,261.063599 119.959152,261.370819 
	C121.321198,261.761688 122.683235,262.152557 124.001732,262.530945 
	C124.001732,265.849762 123.918945,268.843262 124.060631,271.826080 
	C124.095528,272.560791 124.861557,273.260773 125.291466,273.976715 
	C125.860466,273.233978 126.873756,272.518097 126.920486,271.743866 
	C127.108749,268.624512 126.998482,265.487152 126.998482,262.468597 
	C128.536011,262.035370 129.734955,261.697510 130.893402,260.449188 
M41.417118,367.864471 
	C42.925468,360.134552 42.344475,356.155090 38.304657,354.717621 
	C39.098225,359.507050 39.799038,363.736694 41.417118,367.864471 
M316.000916,357.771790 
	C316.004883,360.589142 315.938568,363.409760 316.069733,366.221191 
	C316.097260,366.811707 316.850769,367.368408 317.269806,367.940704 
	C317.843079,367.357208 318.879364,366.798248 318.911835,366.186096 
	C319.078278,363.046265 319.050659,359.890167 318.926544,356.746246 
	C318.903717,356.167847 318.123718,355.619354 317.693207,355.057037 
	C317.131714,355.652191 316.570190,356.247375 316.000916,357.771790 
z"/>
<path fill="#E28998" opacity="1.000000" stroke="none" 
	d="
M238.528931,192.353378 
	C246.870300,200.559387 255.517883,208.051117 262.750183,216.723190 
	C269.480011,224.792755 267.520264,230.911972 258.522614,238.456833 
	C254.519684,241.813431 249.324738,244.323502 244.258133,245.713394 
	C234.578171,248.368896 224.605621,249.962006 214.743530,251.941254 
	C213.996826,252.091125 213.162872,251.806274 210.891220,251.569275 
	C213.861328,249.653717 215.726242,248.315506 217.712997,247.192871 
	C226.680161,242.125763 235.762756,237.255432 244.606216,231.982834 
	C246.487839,230.860992 248.570053,228.398880 248.653442,226.471741 
	C248.719360,224.948425 246.089981,222.873962 244.215485,221.867996 
	C243.131134,221.286072 240.849945,221.878830 239.654678,222.720322 
	C225.759247,232.503021 212.029709,242.521576 198.122101,252.286636 
	C191.701950,256.794464 185.011337,260.920532 178.388367,265.133270 
	C176.961227,266.041046 175.297363,266.576691 173.199799,266.464783 
	C190.293961,247.243561 207.388138,228.022339 224.834381,208.405228 
	C220.545670,204.411423 217.169281,200.615021 217.880768,194.527115 
	C218.578445,188.557190 222.199493,185.541748 227.964279,187.558929 
	C231.486740,188.791489 234.806702,190.602783 238.528931,192.353378 
z"/>
<path fill="#FFFFFF" opacity="1.000000" stroke="none" 
	d="
M122.241417,312.358398 
	C119.860703,316.789948 116.988770,320.698792 115.723450,325.072418 
	C114.521011,329.228638 114.998596,333.870911 114.716553,338.654205 
	C111.508438,338.654205 108.101868,338.654205 103.988625,338.654205 
	C106.678398,322.491821 94.158653,311.872528 88.192825,298.470367 
	C88.192825,300.808228 88.192825,303.146118 88.192825,305.854126 
	C81.429016,305.854126 74.999352,305.854126 68.288162,305.854126 
	C68.288162,308.612000 68.288162,311.015503 68.288162,313.821167 
	C74.253311,313.821167 80.334465,313.821167 86.706009,313.821167 
	C86.706009,317.263794 86.706009,320.337616 86.706009,323.808563 
	C80.746223,323.808563 74.668922,323.808563 68.198349,323.808563 
	C68.198349,328.921783 68.198349,333.666382 68.198349,338.702209 
	C64.078064,338.702209 60.338589,338.702209 56.296738,338.702209 
	C56.296738,324.750916 56.296738,310.685059 56.296738,296.000000 
	C63.080143,296.000000 70.002182,296.000000 76.924225,296.000000 
	C83.085052,296.000000 89.279861,296.387482 95.393661,295.851288 
	C98.929375,295.541199 100.560997,297.342590 101.895782,299.637390 
	C104.552628,304.205170 106.843620,308.985748 109.367821,313.836090 
	C111.733353,309.536469 114.408684,305.560699 116.174652,301.215393 
	C117.955978,296.832367 120.689316,295.312042 125.161057,295.958557 
	C126.912445,296.211761 128.731064,296.000000 131.220795,296.000000 
	C128.128937,301.655334 125.290573,306.847046 122.241417,312.358398 
z"/>
<path fill="#FFFFFF" opacity="1.000000" stroke="none" 
	d="
M219.000000,329.960693 
	C219.000000,333.099854 219.000000,335.744354 219.000000,338.667572 
	C212.563705,339.428223 207.198654,339.926422 203.498444,332.468658 
	C200.396576,326.216919 195.065079,321.071411 190.000000,314.501099 
	C190.000000,319.151306 190.000000,322.966278 190.000000,326.781250 
	C190.000000,330.731384 190.000000,334.681488 190.000000,338.802307 
	C186.192642,338.802307 182.792877,338.802307 179.196808,338.802307 
	C179.196808,324.547516 179.196808,310.490112 179.196808,296.504730 
	C179.631790,296.298462 179.898361,296.123291 180.191040,296.040344 
	C189.179153,293.492615 192.849976,300.068268 196.984802,305.841125 
	C200.335999,310.519897 203.679962,315.203796 207.843765,321.027649 
	C207.843765,311.906891 207.843765,304.225006 207.843765,296.275482 
	C211.632233,296.275482 215.035126,296.275482 219.000000,296.275482 
	C219.000000,307.299774 219.000000,318.382904 219.000000,329.960693 
z"/>
<path fill="#FFFFFF" opacity="1.000000" stroke="none" 
	d="
M409.363464,334.765839 
	C400.995087,325.080170 399.531738,316.092743 404.968079,306.596191 
	C408.750763,299.988342 414.580841,296.297699 422.385406,295.985596 
	C431.756348,295.610901 440.210205,297.146851 445.593842,306.031982 
	C449.981476,313.273224 450.348236,320.724030 446.352295,328.061066 
	C442.463959,335.200439 436.168884,339.210541 427.997589,339.986542 
	C421.279724,340.624512 415.172546,338.879242 409.363464,334.765839 
M426.315308,306.000031 
	C425.649017,306.000214 424.960510,305.889709 424.319916,306.018127 
	C419.394684,307.005310 415.991638,309.258759 414.588165,314.697113 
	C413.191284,320.110046 414.937042,323.845398 418.719055,327.194275 
	C422.043762,330.138184 425.758667,330.778168 429.894196,328.998260 
	C433.327698,327.520447 437.001984,321.665375 436.999725,317.495972 
	C436.996948,312.351715 433.477356,308.245697 426.315308,306.000031 
z"/>
<path fill="#FFFFFF" opacity="1.000000" stroke="none" 
	d="
M254.909378,330.000000 
	C257.050079,330.000000 258.703094,330.000000 260.676300,330.000000 
	C260.676300,332.882080 260.676300,335.622192 260.676300,338.684509 
	C249.800934,338.684509 238.722000,338.684509 227.320511,338.684509 
	C227.320511,324.783295 227.320511,310.711700 227.320511,296.319153 
	C238.217987,296.319153 249.289902,296.319153 260.682007,296.319153 
	C260.682007,299.220184 260.682007,302.296082 260.682007,305.780334 
	C253.457703,305.780334 246.041245,305.780334 238.315338,305.780334 
	C238.315338,308.230713 238.315338,310.301361 238.315338,312.780243 
	C244.856903,312.780243 251.613998,312.780243 258.682648,312.780243 
	C258.682648,315.892029 258.682648,318.632446 258.682648,321.778687 
	C252.128952,321.778687 245.376389,321.778687 238.314972,321.778687 
	C238.314972,324.564453 238.314972,326.973083 238.314972,330.000000 
	C243.550659,330.000000 248.986191,330.000000 254.909378,330.000000 
z"/>
<path fill="#FFFFFF" opacity="1.000000" stroke="none" 
	d="
M362.207306,332.700012 
	C355.977692,323.477203 354.587952,314.441711 360.958649,304.965271 
	C364.263580,300.049072 369.162231,297.822235 374.437256,296.257690 
	C381.960510,294.026367 392.716858,296.841522 398.942230,302.467682 
	C396.828308,305.040985 394.705719,307.624817 393.072021,309.613556 
	C388.468445,308.284149 384.574860,306.577789 380.543518,306.139954 
	C375.271149,305.567291 371.886078,308.720673 369.985077,313.574341 
	C367.887634,318.929504 369.250854,323.519867 373.876495,327.409851 
	C377.674011,330.603394 381.891388,330.625732 386.131042,328.839264 
	C387.081879,328.438599 387.784729,326.562531 387.917908,325.293915 
	C388.190643,322.695862 387.999725,320.049103 387.999725,317.213989 
	C391.419891,317.213989 394.493011,317.213989 397.999390,317.213989 
	C397.999390,322.457794 398.126648,327.582306 397.900970,332.691223 
	C397.850830,333.826904 396.813660,335.450195 395.797028,335.930603 
	C384.387451,341.321686 373.190338,342.504913 362.207306,332.700012 
z"/>
<path fill="#FFFFFF" opacity="1.000000" stroke="none" 
	d="
M159.049988,306.544983 
	C150.224960,304.813171 145.671158,308.003540 143.388214,315.103882 
	C141.965851,319.527740 143.880615,324.375427 148.434967,327.897308 
	C152.166016,330.782532 156.324646,330.477234 160.364517,328.803436 
	C161.211624,328.452454 161.826721,326.711121 161.927170,325.556427 
	C162.156021,322.925476 161.999390,320.261017 161.999390,317.306274 
	C165.222610,317.306274 168.301346,317.306274 171.991974,317.306274 
	C171.991974,322.565979 172.855179,328.204285 171.606155,333.327606 
	C171.032761,335.679596 166.528854,337.865723 163.431717,338.657227 
	C155.094147,340.787872 147.005676,340.867920 139.371414,335.178986 
	C131.984146,329.674194 130.332504,322.311188 131.141891,314.192932 
	C131.876266,306.826904 136.252853,300.899414 143.023849,298.180054 
	C153.374893,294.022858 163.627655,294.712006 173.063049,302.317352 
	C170.850418,305.022888 168.745697,307.596466 166.615921,310.200684 
	C163.964294,308.981110 161.648834,307.916168 159.049988,306.544983 
z"/>
<path fill="#FFFFFF" opacity="1.000000" stroke="none" 
	d="
M335.356445,309.746063 
	C331.566071,308.321014 328.177002,306.806244 324.626740,306.014465 
	C322.519592,305.544556 320.158325,306.214355 317.911316,306.371735 
	C317.768707,307.256989 317.626099,308.142242 317.483490,309.027496 
	C320.712982,310.351959 323.887390,311.837524 327.184265,312.964996 
	C332.838287,314.898468 338.644226,316.162262 340.193359,323.516754 
	C341.354797,329.030518 339.652191,334.100891 334.766022,337.065094 
	C325.371002,342.764557 310.851624,339.533264 303.219543,332.577332 
	C304.615540,329.772278 306.022919,326.944366 307.437042,324.102905 
	C311.224213,325.824768 314.923065,327.611450 318.706909,329.195038 
	C321.975586,330.562927 326.470428,331.242340 327.666931,327.826355 
	C329.384460,322.922913 323.629059,323.555695 321.000336,322.095917 
	C316.792572,319.759216 311.022400,318.957764 308.250763,315.585632 
	C302.873108,309.042816 305.605347,298.866364 316.395569,296.462372 
	C322.913422,295.010254 330.046082,294.951294 336.629364,298.163116 
	C339.773407,299.697083 340.977570,301.322754 338.891968,304.505310 
	C337.737701,306.266724 336.751770,308.138428 335.356445,309.746063 
z"/>
<path fill="#FFFFFF" opacity="1.000000" stroke="none" 
	d="
M296.143463,297.622711 
	C301.285156,299.048553 302.087616,301.522217 299.182312,305.555969 
	C298.291016,306.793396 298.022461,308.479340 297.471130,309.953522 
	C291.400330,308.344757 285.910309,302.430542 278.474426,309.007507 
	C281.697021,310.338562 284.863434,311.833038 288.154663,312.964294 
	C293.796814,314.903625 299.634583,316.109833 301.173920,323.492493 
	C302.324036,329.008240 300.656799,334.130249 295.798401,337.056091 
	C286.386566,342.724060 272.079926,339.624908 264.216949,332.588684 
	C265.608459,329.798584 267.015076,326.978180 268.447388,324.106262 
	C272.204956,325.809326 275.934723,327.499359 279.663971,329.190491 
	C280.244720,329.453827 280.918457,330.062805 281.386841,329.931732 
	C283.951050,329.214325 288.170441,328.869995 288.657715,327.369873 
	C289.850006,323.699524 285.858063,323.592346 283.358337,322.772278 
	C280.482361,321.828766 277.489380,321.150848 274.743805,319.919312 
	C268.398743,317.073303 266.049438,312.815643 267.014069,306.517578 
	C267.998840,300.087982 273.416626,296.634186 278.772766,296.204254 
	C284.400146,295.752533 290.154877,296.886505 296.143463,297.622711 
z"/>
<path fill="#E28998" opacity="1.000000" stroke="none" 
	d="
M213.061188,179.354767 
	C210.537994,164.375519 209.358063,150.076126 219.772583,137.483994 
	C224.691833,131.536148 231.928955,129.311005 240.466507,132.396576 
	C248.073135,135.145691 254.853760,139.173859 259.007111,146.545013 
	C259.328003,147.114548 259.732513,147.639633 260.024811,148.222198 
	C261.978729,152.116714 261.361542,158.836823 258.911865,160.534775 
	C256.559631,162.165192 250.308075,160.527130 247.167847,157.706024 
	C243.374390,154.298080 239.483582,150.989792 235.509735,147.794037 
	C232.203949,145.135544 229.232941,146.251175 226.413101,148.913620 
	C220.394821,154.595978 218.511642,162.311661 216.123306,169.744370 
	C215.075653,173.004730 214.613907,176.453094 213.873566,179.813324 
	C213.840942,179.961395 213.682755,180.081833 213.583069,180.215149 
	C213.420471,180.056763 213.257874,179.898376 213.061188,179.354767 
z"/>
<path fill="#E28998" opacity="1.000000" stroke="none" 
	d="
M311.259979,200.304062 
	C297.661377,209.653961 291.628662,204.079865 284.289459,193.957230 
	C279.683136,187.603928 276.171875,179.868088 280.906921,171.511490 
	C283.468048,166.991577 286.271240,166.480164 289.737396,170.346878 
	C291.449310,172.256622 292.651154,174.670486 293.843872,176.980148 
	C294.500977,178.252716 294.466827,179.872253 295.075531,181.181366 
	C300.678558,193.231934 303.685150,192.397461 312.057709,185.356995 
	C319.424652,179.162079 325.083466,171.593170 327.591370,161.691971 
	C332.293152,171.072723 323.186768,192.283585 311.259979,200.304062 
z"/>
<path fill="#E28998" opacity="1.000000" stroke="none" 
	d="
M287.315979,137.059357 
	C295.579163,141.322037 298.720520,147.366135 296.994385,154.928726 
	C295.174622,162.901428 288.260681,167.493744 280.397339,165.952713 
	C273.674622,164.635223 268.877777,157.408890 269.791168,149.974731 
	C270.993500,140.188492 275.273987,136.946396 287.315979,137.059357 
z"/>
<path fill="#E48A99" opacity="1.000000" stroke="none" 
	d="
M210.998627,365.309784 
	C210.369171,366.556152 209.740860,367.392914 209.112564,368.229675 
	C208.741714,368.037903 208.370850,367.846100 208.000000,367.654327 
	C208.000000,366.183716 208.000000,364.713074 208.000000,363.242462 
	C208.000000,360.604858 208.000000,357.967285 208.000000,355.323914 
	C213.903534,353.844269 212.421906,360.109985 215.192886,361.523560 
	C216.960175,359.159943 218.741699,356.777344 220.523209,354.394714 
	C221.015381,354.679047 221.507553,354.963348 221.999725,355.247681 
	C221.999725,358.368835 222.141739,361.499878 221.925629,364.605988 
	C221.845886,365.752136 220.922272,366.839569 220.383545,367.953766 
	C219.920639,366.925842 219.425125,365.910797 219.010941,364.863617 
	C218.847290,364.449860 218.864716,363.964508 218.789108,363.438171 
	C215.364929,368.421661 215.252853,368.407654 210.999802,362.190063 
	C210.999802,363.358307 210.999802,364.129242 210.998627,365.309784 
z"/>
<path fill="#E48A99" opacity="1.000000" stroke="none" 
	d="
M148.000000,361.929932 
	C148.000000,359.497559 148.000000,357.534393 148.000000,355.001953 
	C150.384430,355.001953 152.479431,354.897003 154.560043,355.025146 
	C158.222137,355.250641 159.984116,358.228363 158.801758,361.633820 
	C158.170273,363.452606 157.991104,365.428436 157.482880,367.954132 
	C158.209152,367.767334 157.658081,368.102234 157.393936,367.947449 
	C154.409805,366.198853 151.483765,363.705811 148.000000,369.535828 
	C148.000000,365.996735 148.000000,364.197906 148.000000,361.929932 
z"/>
<path fill="#E48A99" opacity="1.000000" stroke="none" 
	d="
M79.834312,358.617676 
	C80.060448,367.723083 78.645424,368.712250 67.274246,367.667542 
	C67.274246,363.659729 67.274246,359.619568 67.274246,355.203247 
	C71.715996,355.171509 76.401924,353.460510 79.834312,358.617676 
M72.219284,365.966675 
	C75.124023,365.582397 77.373039,363.910980 76.717537,361.063049 
	C76.371384,359.559174 73.679909,358.595062 72.047333,357.387238 
	C71.663986,357.779419 71.280632,358.171600 70.897285,358.563751 
	C71.059074,360.969696 71.220856,363.375610 72.219284,365.966675 
z"/>
<path fill="#E48A99" opacity="1.000000" stroke="none" 
	d="
M436.295044,367.700958 
	C432.783661,364.873413 431.838898,360.549103 433.837067,357.709045 
	C435.917145,354.752594 440.538635,353.955292 443.983490,355.998322 
	C447.469360,358.065765 447.634399,361.457672 446.639679,364.659760 
	C445.638947,367.881348 440.376892,369.327942 436.295044,367.700958 
M436.361877,363.853699 
	C437.029663,364.269836 437.724243,364.648804 438.360657,365.108459 
	C441.490753,367.369202 442.267151,363.970673 443.521301,362.613739 
	C443.966400,362.132172 442.893585,359.070282 442.053741,358.836151 
	C440.543121,358.414948 438.505402,358.903687 437.047546,359.684143 
	C436.309021,360.079498 436.355591,361.941284 436.361877,363.853699 
z"/>
<path fill="#E48A99" opacity="1.000000" stroke="none" 
	d="
M348.287201,360.770813 
	C349.040955,359.996765 349.517883,358.961945 350.001740,357.930359 
	C350.499939,356.868195 351.004944,355.809265 351.506989,354.748901 
	C351.931274,354.915985 352.355591,355.083069 352.779877,355.250153 
	C352.779877,359.365845 352.779877,363.481567 352.779877,367.717377 
	C347.372223,369.169250 347.535065,363.361328 344.569336,361.777557 
	C344.008270,363.804077 343.399933,366.001312 342.791595,368.198547 
	C342.267242,368.045288 341.742889,367.891998 341.218536,367.738708 
	C341.218536,363.617401 341.218536,359.496124 341.218536,355.231262 
	C345.408539,354.599487 346.084015,358.378357 348.287201,360.770813 
z"/>
<path fill="#E48A99" opacity="1.000000" stroke="none" 
	d="
M256.000000,361.069672 
	C256.000000,358.824005 256.000000,357.038971 256.000000,355.253906 
	C256.445618,354.956757 256.891235,354.659576 257.336884,354.362396 
	C259.778931,356.998108 262.221008,359.633789 264.585938,362.186218 
	C265.018402,359.812408 265.479706,357.280396 265.941010,354.748413 
	C266.525726,354.875977 267.110413,355.003510 267.695129,355.131073 
	C267.695129,359.210632 267.695129,363.290192 267.695129,367.574615 
	C262.621033,369.858887 262.505127,363.412201 259.549408,362.358765 
	C258.977783,364.515137 258.474213,366.414948 257.970612,368.314758 
	C257.313751,368.159668 256.656860,368.004578 256.000000,367.849487 
	C256.000000,365.743103 256.000000,363.636688 256.000000,361.069672 
z"/>
<path fill="#E48A99" opacity="1.000000" stroke="none" 
	d="
M49.000000,361.069672 
	C49.000000,358.819824 49.000000,357.030548 49.000000,355.241302 
	C49.445656,354.948303 49.891312,354.655304 50.336967,354.362305 
	C52.778973,356.998047 55.220978,359.633789 57.585880,362.186310 
	C58.018368,359.812408 58.479660,357.280396 58.940956,354.748413 
	C59.525677,354.875946 60.110394,355.003510 60.695114,355.131073 
	C60.695114,359.210632 60.695114,363.290192 60.695114,367.575195 
	C55.603344,369.890106 55.541191,363.348450 52.539246,362.397308 
	C51.979988,364.507080 51.480976,366.389587 50.981960,368.272095 
	C50.321308,368.131226 49.660652,367.990356 49.000000,367.849518 
	C49.000000,365.743103 49.000000,363.636688 49.000000,361.069672 
z"/>
<path fill="#E48A99" opacity="1.000000" stroke="none" 
	d="
M123.997589,362.758057 
	C123.147179,367.299957 119.676064,368.842865 116.417274,368.698456 
	C114.260315,368.602936 111.000023,366.181610 110.449104,364.188965 
	C109.808876,361.873383 110.856300,358.182129 112.553665,356.418152 
	C113.901184,355.017731 117.928467,354.588531 119.680038,355.602997 
	C121.733559,356.792358 122.611565,360.011322 123.997589,362.758057 
M115.791168,358.057587 
	C111.376297,362.112823 111.752869,363.778595 118.170166,366.001221 
	C119.057884,364.301544 120.515572,362.552307 120.682373,360.687561 
	C120.750786,359.922699 118.033348,358.908661 115.791168,358.057587 
z"/>
<path fill="#E48A99" opacity="1.000000" stroke="none" 
	d="
M282.295258,355.133057 
	C286.324524,356.926697 287.883057,359.813751 286.693115,363.571960 
	C284.634277,370.074097 279.092651,367.544617 274.334717,367.992065 
	C274.334717,363.790649 274.334717,359.744324 274.334717,355.028320 
	C276.743530,355.028320 279.310516,355.028320 282.295258,355.133057 
M278.253510,365.973297 
	C280.155518,364.354218 282.057495,362.735168 283.959503,361.116119 
	C281.990631,359.830627 280.021759,358.545105 278.052887,357.259613 
	C277.667084,357.687866 277.281250,358.116150 276.895447,358.544403 
	C277.067932,360.964355 277.240387,363.384277 278.253510,365.973297 
z"/>
<path fill="#E48A99" opacity="1.000000" stroke="none" 
	d="
M185.975586,365.614502 
	C182.321350,369.366760 178.353378,369.747009 175.388321,366.819458 
	C172.809067,364.272888 172.054428,361.255920 174.022690,357.934570 
	C176.029419,354.548248 180.645172,354.000885 185.842133,356.503296 
	C185.867432,356.963776 185.892715,357.424286 185.918015,357.884766 
	C184.510193,357.931183 183.078400,358.162903 181.699661,357.984558 
	C179.027206,357.638794 176.747787,358.405975 176.596390,361.143127 
	C176.525070,362.432465 178.330414,364.089844 179.661728,365.068512 
	C180.230927,365.486908 182.008423,364.889862 182.789017,364.226898 
	C183.681442,363.468842 184.075577,362.124115 184.686234,361.034332 
	C185.122345,362.421021 185.558456,363.807739 185.975586,365.614502 
z"/>
<path fill="#E48A99" opacity="1.000000" stroke="none" 
	d="
M463.309875,362.737793 
	C464.019104,364.535126 464.484314,366.019684 465.350494,368.783844 
	C460.340302,365.780243 455.965912,364.199921 451.723663,369.514740 
	C451.575165,368.895477 451.426697,368.276215 451.278198,367.656982 
	C452.728210,364.043091 454.093414,360.390930 455.693024,356.844513 
	C456.054138,356.043915 457.324341,355.033539 458.011749,355.143829 
	C459.068726,355.313446 460.326813,356.163788 460.882782,357.093964 
	C461.856934,358.723663 462.363464,360.632874 463.309875,362.737793 
z"/>
<path fill="#E48A99" opacity="1.000000" stroke="none" 
	d="
M241.791916,355.729919 
	C243.400269,356.108704 245.345871,356.414642 245.963898,357.486237 
	C247.800278,360.670410 249.114212,364.155853 251.155548,368.684174 
	C245.866226,365.719299 241.188538,364.574738 236.301605,367.684265 
	C238.041870,363.791840 239.782135,359.899414 241.791916,355.729919 
z"/>
<path fill="#E48A99" opacity="1.000000" stroke="none" 
	d="
M366.930359,357.993042 
	C365.328979,358.168884 364.166260,358.339142 363.003510,358.509430 
	C363.020111,358.861786 363.036743,359.214172 363.053345,359.566559 
	C364.876007,359.801392 366.698669,360.036224 368.521332,360.271057 
	C368.712952,360.709503 368.904572,361.147949 369.096191,361.586395 
	C368.000031,362.057770 366.873535,362.470551 365.816620,363.017761 
	C364.855835,363.515228 363.970734,364.158875 363.052246,364.738037 
	C363.962067,365.158386 364.834778,365.758728 365.790619,365.955688 
	C367.126678,366.230957 368.524689,366.205353 369.888336,367.426758 
	C366.483795,367.426758 363.079285,367.426758 359.329987,367.426758 
	C359.329987,363.739349 359.329987,359.678558 359.329987,355.006927 
	C361.844177,355.006927 364.446716,354.937836 367.040710,355.055878 
	C367.682739,355.085083 368.297119,355.721466 368.924194,356.078735 
	C368.405792,356.714966 367.887390,357.351196 366.930359,357.993042 
z"/>
<path fill="#E48A99" opacity="1.000000" stroke="none" 
	d="
M135.846207,365.561798 
	C136.784515,364.012115 137.726227,362.768585 137.922058,361.416992 
	C138.219666,359.362640 137.999908,357.233337 137.999908,353.791504 
	C142.846756,357.622528 140.967651,361.828430 140.581207,364.998413 
	C140.403381,366.457214 136.415833,368.576630 134.273621,368.447113 
	C129.112686,368.135101 128.792252,363.813385 129.128616,357.263885 
	C129.178085,356.300568 130.876053,355.421936 131.885483,354.431274 
	C134.578964,358.622284 130.343430,363.537628 135.846207,365.561798 
z"/>
<path fill="#E48A99" opacity="1.000000" stroke="none" 
	d="
M395.238708,355.002747 
	C396.814056,355.028564 398.064178,354.804901 399.109192,355.169373 
	C399.857208,355.430237 400.330414,356.479065 400.926239,357.176331 
	C400.069550,357.493652 399.233490,357.981079 398.351257,358.088043 
	C397.060669,358.244537 395.736969,358.128265 393.668610,358.128265 
	C396.853119,360.924835 404.064850,361.118195 400.235779,366.837036 
	C397.841034,370.413757 393.389099,368.581451 390.042114,365.113586 
	C392.551605,365.113586 395.061096,365.113586 397.258301,365.113586 
	C395.152191,362.811951 393.090759,360.559143 391.029358,358.306335 
	C392.294800,357.205872 393.560242,356.105408 395.238708,355.002747 
z"/>
<path fill="#E48A99" opacity="1.000000" stroke="none" 
	d="
M384.647339,356.258881 
	C384.426636,357.312531 383.964905,358.649597 383.458832,358.666595 
	C382.145721,358.710754 380.813080,358.174103 378.419098,357.623291 
	C381.318298,360.965088 386.934357,361.308014 384.686676,366.187927 
	C384.062622,367.542786 380.969788,368.398590 379.057281,368.320190 
	C377.525452,368.257385 376.065796,366.432922 374.574127,365.390259 
	C374.853516,365.005096 375.132904,364.619965 375.412292,364.234802 
	C377.401764,364.681427 379.391235,365.128052 381.380707,365.574646 
	C381.519562,365.114197 381.658386,364.653748 381.797241,364.193298 
	C380.652100,363.715851 379.216278,363.518250 378.426819,362.698303 
	C377.090149,361.310120 376.161835,359.528748 375.061859,357.912659 
	C376.611603,356.941925 378.057495,355.540619 379.743317,355.133911 
	C381.144440,354.795837 382.827759,355.627380 384.647339,356.258881 
z"/>
<path fill="#E48A99" opacity="1.000000" stroke="none" 
	d="
M423.770203,355.003052 
	C425.275330,355.909729 426.360748,356.814056 427.446136,357.718353 
	C427.198334,358.109711 426.950531,358.501068 426.702728,358.892426 
	C423.355103,358.031464 419.567230,356.509674 418.244446,361.150879 
	C417.928528,362.259277 420.381409,365.443878 421.041748,365.299500 
	C422.940063,364.884430 424.572693,363.254303 426.817139,361.764893 
	C426.706085,363.124908 427.226685,365.674438 426.186493,366.910706 
	C425.199280,368.084015 422.198029,368.731293 420.763245,368.089020 
	C418.539581,367.093781 415.785309,365.103485 415.224335,363.008087 
	C413.869751,357.948792 417.075592,355.171478 423.770203,355.003052 
z"/>
<path fill="#FFFFFF" opacity="1.000000" stroke="none" 
	d="
M380.755981,260.016418 
	C386.377045,263.244446 386.943024,271.534241 381.924713,273.868103 
	C380.389923,274.581879 376.763092,274.312408 376.464539,273.556732 
	C375.216309,270.397369 374.216949,266.823883 374.510254,263.525238 
	C374.629059,262.188843 378.286652,261.167114 380.755981,260.016418 
M377.911591,271.359161 
	C381.229645,271.739807 383.844391,269.267273 382.856720,266.187531 
	C382.361847,264.644348 380.529449,263.530121 379.301971,262.221924 
	C378.534668,263.598877 377.452545,264.898865 377.091736,266.375183 
	C376.754700,267.753967 377.183594,269.319946 377.911591,271.359161 
z"/>
<path fill="#FFFFFF" opacity="1.000000" stroke="none" 
	d="
M113.328552,271.989868 
	C114.897026,271.489319 116.073654,270.980011 117.757538,270.251099 
	C114.403992,267.276794 107.398575,268.608368 109.699669,262.292755 
	C110.233406,260.827850 114.743980,260.725891 117.470825,260.277557 
	C117.747025,260.232117 118.343262,262.133118 118.777641,263.101135 
	C116.021095,263.101135 114.018623,263.101135 112.016144,263.101135 
	C111.981720,263.599335 111.947289,264.097565 111.912865,264.595764 
	C113.361290,265.076172 115.166046,265.180634 116.168808,266.131195 
	C117.450531,267.346161 118.999100,269.402496 118.755203,270.804413 
	C118.483437,272.366547 116.474564,274.491821 114.953468,274.742310 
	C113.226379,275.026733 111.185577,273.541748 109.345749,272.686951 
	C109.228676,272.632568 109.668755,271.378967 109.849640,270.683228 
	C110.878662,271.115845 111.907684,271.548462 113.328552,271.989868 
z"/>
<path fill="#FFFFFF" opacity="1.000000" stroke="none" 
	d="
M400.431213,274.781006 
	C399.244568,274.094421 398.167755,273.771484 397.671112,273.049438 
	C397.214142,272.385101 397.381317,271.291443 397.273560,270.386902 
	C398.155304,270.460480 399.090912,270.372620 399.906433,270.644653 
	C401.192566,271.073822 402.398041,271.744812 403.637695,272.313416 
	C403.960449,271.765564 404.283234,271.217712 404.605988,270.669861 
	C403.133972,269.402496 401.661957,268.135162 400.396088,267.045288 
	C401.379547,265.925018 402.540253,264.602905 403.700989,263.280792 
	C401.941040,263.280792 400.181122,263.280792 397.862579,263.280792 
	C398.336060,262.401154 398.795715,260.466980 399.564911,260.334839 
	C401.371490,260.024506 403.456909,260.251160 405.156952,260.936523 
	C405.846283,261.214386 405.939362,263.237732 406.092346,264.492584 
	C406.208252,265.443512 405.653748,266.565582 405.973267,267.387787 
	C408.090637,272.836273 407.155487,274.271057 400.431213,274.781006 
z"/>
<path fill="#E48A99" opacity="1.000000" stroke="none" 
	d="
M29.226265,358.004578 
	C28.175793,358.278046 27.564709,358.547852 26.902744,358.840149 
	C29.146530,359.933960 31.044350,360.859100 32.942173,361.784241 
	C31.242405,362.372742 29.542633,362.961243 27.514105,363.663574 
	C27.063543,364.849060 26.408365,366.572906 25.753189,368.296722 
	C25.278732,368.156677 24.804276,368.016602 24.329819,367.876556 
	C24.329819,363.836029 24.329819,359.795532 24.329819,355.000031 
	C26.029240,355.000031 27.943653,354.834106 29.812551,355.054352 
	C31.222889,355.220551 32.574993,355.880890 33.953018,356.321320 
	C32.523895,356.881195 31.094772,357.441071 29.226265,358.004578 
z"/>
<path fill="#FFFFFF" opacity="1.000000" stroke="none" 
	d="
M371.798889,266.572876 
	C369.893829,268.513245 368.166199,270.122711 366.313690,271.848541 
	C368.638000,271.986237 370.814575,272.115204 372.991119,272.244141 
	C372.986053,272.626282 372.980957,273.008392 372.975861,273.390503 
	C369.772766,273.390503 366.569672,273.390503 362.039062,273.390503 
	C364.875244,270.061218 367.380341,267.120605 369.885406,264.180023 
	C369.854034,263.721893 369.822662,263.263763 369.791290,262.805634 
	C367.601746,263.115509 365.412201,263.425415 362.872955,263.784790 
	C364.205017,259.457001 367.497375,259.292297 370.368256,260.306122 
	C372.772186,261.155029 373.506989,263.688934 371.798889,266.572876 
z"/>
<path fill="#E48A99" opacity="1.000000" stroke="none" 
	d="
M310.912323,355.968689 
	C309.032379,357.260986 307.096222,358.112457 304.690918,359.170258 
	C307.118408,359.885040 309.185944,360.493835 311.253448,361.102600 
	C311.109589,361.640320 310.965729,362.178009 310.821838,362.715729 
	C309.068756,362.875641 307.315643,363.035583 305.722321,363.180939 
	C305.031128,364.976868 304.389771,366.643433 303.748383,368.309998 
	C303.244934,368.141144 302.741486,367.972260 302.238037,367.803406 
	C302.238037,363.736694 302.238037,359.669983 302.238037,354.903564 
	C305.155731,355.114899 308.005920,355.321381 310.912323,355.968689 
z"/>
<path fill="#FFFFFF" opacity="1.000000" stroke="none" 
	d="
M391.074585,260.000092 
	C392.985748,261.190033 395.492462,262.209564 395.731537,263.614807 
	C396.004181,265.217865 394.450226,267.300934 393.316895,268.913025 
	C392.585754,269.953094 391.183777,270.521576 389.508301,271.707855 
	C392.303284,271.986847 394.148468,272.171021 395.993652,272.355194 
	C395.994141,272.797150 395.994598,273.239105 395.995056,273.681030 
	C393.109192,273.813507 390.223297,273.945953 387.337402,274.078400 
	C386.970367,273.663391 386.603302,273.248352 386.236267,272.833313 
	C387.567719,271.214569 388.723907,269.397888 390.273560,268.025482 
	C392.363892,266.174194 394.637878,264.644897 391.518921,262.085815 
	C389.760712,262.694580 388.253510,263.216431 386.746307,263.738281 
	C386.505676,263.172150 386.265045,262.606018 386.024414,262.039886 
	C387.572418,261.359955 389.120453,260.679993 391.074585,260.000092 
z"/>
<path fill="#E48A99" opacity="1.000000" stroke="none" 
	d="
M97.041580,363.182495 
	C95.639450,360.406128 94.313721,358.019836 92.984779,355.627808 
	C97.718239,353.113129 97.138901,358.391754 99.147896,359.550140 
	C100.641937,357.838104 102.125923,356.137604 103.609909,354.437073 
	C104.049797,354.705536 104.489685,354.973969 104.929573,355.242401 
	C104.714020,356.230011 104.678673,357.306152 104.245743,358.186920 
	C103.318718,360.072968 102.125328,361.826508 101.158104,363.694946 
	C100.448586,365.065613 99.925323,366.532684 99.319046,367.956787 
	C98.585350,366.495392 97.851662,365.034027 97.041580,363.182495 
z"/>
<path fill="#E48A99" opacity="1.000000" stroke="none" 
	d="
M192.755844,360.384094 
	C191.798813,358.488220 191.042542,356.922638 190.286270,355.357056 
	C190.623428,355.013458 190.960587,354.669861 191.297745,354.326263 
	C193.178421,356.003021 195.059082,357.679779 196.725021,359.165070 
	C198.084015,357.787445 199.777374,356.070831 201.470718,354.354248 
	C201.762985,354.632660 202.055252,354.911072 202.347519,355.189484 
	C200.877533,359.113983 199.437378,363.050293 197.897369,366.947144 
	C197.717972,367.401062 196.846069,368.009491 196.540573,367.894531 
	C195.940582,367.668640 195.304825,367.071747 195.053101,366.473083 
	C194.262192,364.592224 193.642578,362.639343 192.755844,360.384094 
z"/>
<path fill="#FFFFFF" opacity="1.000000" stroke="none" 
	d="
M102.960220,260.000000 
	C104.942085,260.085022 106.458199,260.170013 107.974304,260.255005 
	C107.973808,260.750793 107.973305,261.246552 107.972801,261.742340 
	C105.879662,261.867706 103.786522,261.993073 101.309875,262.141388 
	C101.222710,263.253967 101.129875,264.438873 101.028061,265.738434 
	C103.235939,265.953552 105.095413,266.134735 106.954887,266.315918 
	C106.988480,266.756470 107.022079,267.197021 107.055672,267.637573 
	C105.314217,267.806152 103.572762,267.974701 101.363998,268.188507 
	C101.253456,269.183685 101.123116,270.357086 100.961510,271.811981 
	C103.496094,271.960632 105.731064,272.091675 107.966034,272.222748 
	C107.986435,272.678741 108.006836,273.134705 108.027229,273.590698 
	C105.214668,273.770264 102.402107,273.949829 99.000191,274.166992 
	C99.000191,270.198944 99.243668,266.573669 98.926750,262.998047 
	C98.649895,259.874481 100.328796,259.828064 102.960220,260.000000 
z"/>
<path fill="#E48A99" opacity="1.000000" stroke="none" 
	d="
M328.685303,358.518250 
	C327.206207,357.653107 325.969116,357.168182 324.731995,356.683228 
	C324.891815,356.216187 325.051605,355.749115 325.211426,355.282074 
	C328.762421,355.282074 332.313416,355.282074 335.864441,355.282074 
	C336.021179,355.656067 336.177917,356.030060 336.334686,356.404053 
	C334.977142,357.193085 333.619598,357.982147 331.942505,358.956940 
	C331.942505,361.610809 331.942505,364.551941 331.942505,367.510834 
	C329.119934,367.269653 329.119934,367.269653 328.685303,358.518250 
z"/>
<path fill="#E48A99" opacity="1.000000" stroke="none" 
	d="
M470.000031,359.165436 
	C469.786530,356.016937 470.175232,354.017639 473.905945,355.503296 
	C473.905945,358.736176 473.905945,362.000397 473.905945,365.510773 
	C475.721283,365.877991 477.324249,366.202209 478.927216,366.526459 
	C478.926300,366.906708 478.925354,367.286926 478.924438,367.667175 
	C476.182312,367.811676 473.440186,367.956207 470.000000,368.137512 
	C470.000000,365.115936 470.000000,362.375519 470.000031,359.165436 
z"/>
<path fill="#FFFFFF" opacity="1.000000" stroke="none" 
	d="
M130.913635,260.904419 
	C129.734955,261.697510 128.536011,262.035370 126.998482,262.468597 
	C126.998482,265.487152 127.108749,268.624512 126.920486,271.743866 
	C126.873756,272.518097 125.860466,273.233978 125.291473,273.976715 
	C124.861557,273.260773 124.095528,272.560791 124.060631,271.826080 
	C123.918945,268.843262 124.001732,265.849762 124.001732,262.530945 
	C122.683235,262.152557 121.321198,261.761688 119.959152,261.370819 
	C119.999649,261.063599 120.040146,260.756409 120.080635,260.449188 
	C123.684891,260.449188 127.289146,260.449188 130.913635,260.904419 
z"/>
<path fill="#E48A99" opacity="1.000000" stroke="none" 
	d="
M40.958485,367.915405 
	C39.799038,363.736694 39.098225,359.507050 38.304657,354.717621 
	C42.344475,356.155090 42.925468,360.134552 40.958485,367.915405 
z"/>
<path fill="#E48A99" opacity="1.000000" stroke="none" 
	d="
M316.004822,357.307159 
	C316.570190,356.247375 317.131714,355.652191 317.693207,355.057037 
	C318.123718,355.619354 318.903717,356.167847 318.926544,356.746246 
	C319.050659,359.890167 319.078278,363.046265 318.911835,366.186096 
	C318.879364,366.798248 317.843079,367.357208 317.269775,367.940674 
	C316.850769,367.368408 316.097260,366.811707 316.069733,366.221191 
	C315.938568,363.409760 316.004883,360.589142 316.004822,357.307159 
z"/>
<path fill="#000000" opacity="1.000000" stroke="none" 
	d="
M426.730957,306.000610 
	C433.477356,308.245697 436.996948,312.351715 436.999725,317.495972 
	C437.001984,321.665375 433.327698,327.520447 429.894196,328.998260 
	C425.758667,330.778168 422.043762,330.138184 418.719055,327.194275 
	C414.937042,323.845398 413.191284,320.110046 414.588165,314.697113 
	C415.991638,309.258759 419.394684,307.005310 424.319916,306.018127 
	C424.960510,305.889709 425.649017,306.000214 426.730957,306.000610 
z"/>
<path fill="#000000" opacity="1.000000" stroke="none" 
	d="
M71.800964,365.874115 
	C71.220856,363.375610 71.059074,360.969696 70.897285,358.563751 
	C71.280632,358.171600 71.663986,357.779419 72.047333,357.387238 
	C73.679909,358.595062 76.371384,359.559174 76.717537,361.063049 
	C77.373039,363.910980 75.124023,365.582397 71.800964,365.874115 
z"/>
<path fill="#000000" opacity="1.000000" stroke="none" 
	d="
M436.204559,363.496887 
	C436.355591,361.941284 436.309021,360.079498 437.047546,359.684143 
	C438.505402,358.903687 440.543121,358.414948 442.053741,358.836151 
	C442.893585,359.070282 443.966400,362.132172 443.521301,362.613739 
	C442.267151,363.970673 441.490753,367.369202 438.360657,365.108459 
	C437.724243,364.648804 437.029663,364.269836 436.204559,363.496887 
z"/>
<path fill="#000000" opacity="1.000000" stroke="none" 
	d="
M116.187180,358.032776 
	C118.033348,358.908661 120.750786,359.922699 120.682373,360.687561 
	C120.515572,362.552307 119.057884,364.301544 118.170166,366.001221 
	C111.752869,363.778595 111.376297,362.112823 116.187180,358.032776 
z"/>
<path fill="#000000" opacity="1.000000" stroke="none" 
	d="
M277.833191,365.888763 
	C277.240387,363.384277 277.067932,360.964355 276.895447,358.544403 
	C277.281250,358.116150 277.667084,357.687866 278.052887,357.259613 
	C280.021759,358.545105 281.990631,359.830627 283.959473,361.116089 
	C282.057495,362.735168 280.155518,364.354218 277.833191,365.888763 
z"/>
<path fill="#000000" opacity="1.000000" stroke="none" 
	d="
M377.593475,271.081360 
	C377.183594,269.319946 376.754700,267.753967 377.091736,266.375183 
	C377.452545,264.898865 378.534668,263.598877 379.301971,262.221924 
	C380.529449,263.530121 382.361847,264.644348 382.856720,266.187531 
	C383.844391,269.267273 381.229645,271.739807 377.593475,271.081360 
z"/>
</svg>